<svg id="Layer_1" data-name="Layer 1" xmlns="http://www.w3.org/2000/svg" viewBox="0 0 475.52 475.52"><defs><style>.cls-1{fill:#bee7f9;}.cls-2{fill:#4f97b2;}</style></defs><circle class="cls-1" cx="237.76" cy="237.76" r="237.76"/><path class="cls-2" d="M369.84,308.55C359.13,297,339.07,279.7,339.07,223c0-43.11-30.23-77.62-71-86.09V125.3a17.75,17.75,0,1,0-35.49,0v11.56c-40.75,8.47-71,43-71,86.09,0,56.75-20.06,74.08-30.78,85.6a17.35,17.35,0,0,0-4.77,12,17.77,17.77,0,0,0,17.81,17.76H356.81a17.77,17.77,0,0,0,17.81-17.76,17.29,17.29,0,0,0-4.78-12Zm-206.31,3.17c11.78-15.52,24.65-41.24,24.71-88.45,0-.11,0-.21,0-.32a62.14,62.14,0,1,1,124.27,0c0,.11,0,.21,0,.32.06,47.21,12.93,72.93,24.71,88.45Zm86.81,79.89a35.51,35.51,0,0,0,35.5-35.51h-71A35.51,35.51,0,0,0,250.34,391.61Z" transform="translate(-12.24 -12.24)"/></svg>