<?xml version="1.0" encoding="utf-8"?>
<!-- Generator: Adobe Illustrator 26.0.1, SVG Export Plug-In . SVG Version: 6.00 Build 0)  -->
<svg version="1.1" id="Layer_1" xmlns="http://www.w3.org/2000/svg" xmlns:xlink="http://www.w3.org/1999/xlink" x="0px" y="0px"
	 viewBox="0 0 475.5 475.5" style="enable-background:new 0 0 475.5 475.5;" xml:space="preserve">
<style type="text/css">
	.st0{fill:#BEE7F9;}
	.st1{fill:#4F97B2;}
</style>
<circle class="st0" cx="237.8" cy="237.8" r="237.8"/>
<path class="st1" d="M351.2,290.4V120.3c0-6.7-5.4-12.1-12.1-12.1c0,0,0,0-0.1,0H173c-26.8,0-48.6,21.8-48.6,48.6v162
	c0,26.8,21.8,48.6,48.6,48.6H339c6.7,0,12.1-5.4,12.1-12.1c0,0,0,0,0-0.1v-8.1c0-3.7-1.6-7.1-4.5-9.5c-2.1-7.8-2.1-30,0-37.8
	C349.5,297.6,351.2,294.1,351.2,290.4L351.2,290.4z M189.2,176c0-1.7,1.4-3,3-3h107.3c1.7,0,3,1.4,3,3v0v10.1c0,1.7-1.4,3-3,3H192.2
	c-1.7,0-3-1.4-3-3V176z M189.2,208.4c0-1.7,1.4-3,3-3h107.3c1.7,0,3,1.4,3,3v0v10.1c0,1.7-1.3,3-3,3c0,0,0,0,0,0H192.2
	c-1.7,0-3-1.4-3-3V208.4z M317.4,335H173c-8.9,0-16.2-7.3-16.2-16.2s7.3-16.2,16.2-16.2h144.5C316.5,313.3,316.5,324.2,317.4,335z"
	/>
</svg>
