<svg id="Layer_1" data-name="Layer 1" xmlns="http://www.w3.org/2000/svg" viewBox="0 0 475.52 475.52"><defs><style>.cls-1{fill:#bee7f9;}.cls-2{fill:#4f97b2;}</style></defs><circle class="cls-1" cx="237.76" cy="237.76" r="237.76"/><path class="cls-2" d="M394.77,249.73c.15,79.76-64.9,145-144.67,145a144.27,144.27,0,0,1-91-32,14,14,0,0,1-1.07-20.79l6.58-6.58a14,14,0,0,1,18.61-1.16,107.42,107.42,0,1,0-6.85-162.45L206,201.37a9.34,9.34,0,0,1-6.61,15.94H114.57a9.34,9.34,0,0,1-9.34-9.34V123.11a9.34,9.34,0,0,1,15.94-6.61L150,145.33a144.76,144.76,0,0,1,244.77,104.4Zm-105.61,46,5.74-7.38a14,14,0,0,0-2.46-19.66L268.68,250.2V189.29a14,14,0,0,0-14-14h-9.34a14,14,0,0,0-14,14v79.19l38.18,29.69A14,14,0,0,0,289.16,295.72Z" transform="translate(-12.24 -12.24)"/></svg>