<svg id="Layer_1" data-name="Layer 1" xmlns="http://www.w3.org/2000/svg" viewBox="0 0 500 500"><defs><style>.cls-1{fill:#bee7f9;}.cls-2{fill:#4f97b2;}</style></defs><circle class="cls-1" cx="250" cy="250" r="237.76"/><path class="cls-2" d="M216.5,252.94a8.33,8.33,0,0,0,11.79,0l5.89-5.89a8.33,8.33,0,0,0,0-11.79l-18.61-18.6,18.61-18.61a8.35,8.35,0,0,0,0-11.79l-5.9-5.89a8.35,8.35,0,0,0-11.79,0L186.1,210.76a8.35,8.35,0,0,0,0,11.79Zm50-5.88,5.9,5.89a8.34,8.34,0,0,0,11.78,0l30.39-30.39a8.33,8.33,0,0,0,0-11.79l-30.39-30.39a8.32,8.32,0,0,0-11.78,0l-5.9,5.89a8.35,8.35,0,0,0,0,11.79l18.61,18.6-18.61,18.61a8.35,8.35,0,0,0,0,11.79Zm142.2,86.29H282.4c-.38,10.32-7.66,16.67-17,16.67H233.67c-9.73,0-17.2-9.1-17.07-16.67H92a8.36,8.36,0,0,0-8.33,8.33V350A33.44,33.44,0,0,0,117,383.36H383.7A33.44,33.44,0,0,0,417,350v-8.34A8.36,8.36,0,0,0,408.71,333.35Zm-25-191.7a25.08,25.08,0,0,0-25-25H142a25.08,25.08,0,0,0-25,25v175H383.7ZM350.36,283.34h-200V150h200Z"/></svg>