<svg id="Layer_1" data-name="Layer 1" xmlns="http://www.w3.org/2000/svg" viewBox="0 0 475.52 475.52"><defs><style>.cls-1{fill:#bee7f9;}.cls-2{fill:#4f97b2;}</style></defs><circle class="cls-1" cx="237.76" cy="237.76" r="237.76"/><path class="cls-2" d="M250.34,244a73.81,73.81,0,1,0-73.8-73.8A73.8,73.8,0,0,0,250.34,244Zm55.24,18.8L278,373.16l-18.45-78.42L278,262.45H222.67l18.45,32.29-18.45,78.42L195.11,262.8c-41.11,2-73.92,35.57-73.92,77.14v24a27.68,27.68,0,0,0,27.67,27.68h203a27.69,27.69,0,0,0,27.68-27.68v-24c0-41.57-32.81-75.18-73.92-77.14Z" transform="translate(-12.24 -12.24)"/></svg>